<svg width="24" height="24" viewBox="0 0 24 24" fill="none" xmlns="http://www.w3.org/2000/svg">
  <!-- Local/Offline representation with computer/device -->
  <g fill="currentColor">
    <!-- Computer/Device screen -->
    <rect x="4" y="5" width="16" height="10" rx="1.5" stroke="currentColor" stroke-width="1.5" fill="none"/>
    
    <!-- Screen content (representing local processing) -->
    <rect x="6" y="7" width="3" height="2" rx="0.3" fill="currentColor" opacity="0.7"/>
    <rect x="10" y="7" width="4" height="1" rx="0.3" fill="currentColor" opacity="0.5"/>
    <rect x="6" y="10" width="5" height="1" rx="0.3" fill="currentColor" opacity="0.5"/>
    <rect x="6" y="12" width="4" height="1" rx="0.3" fill="currentColor" opacity="0.5"/>
    
    <!-- CPU/Processor indicator -->
    <rect x="15" y="8" width="3" height="3" rx="0.3" stroke="currentColor" stroke-width="1" fill="none"/>
    <circle cx="16.5" cy="9.5" r="0.5" fill="currentColor"/>
    
    <!-- Base/Stand -->
    <rect x="10" y="15" width="4" height="1" rx="0.5" fill="currentColor"/>
    <rect x="8" y="16" width="8" height="1.5" rx="0.5" fill="currentColor"/>
    
    <!-- Local storage indicator (small drive icon) -->
    <rect x="2" y="18" width="4" height="2" rx="0.3" stroke="currentColor" stroke-width="1" fill="none"/>
    <circle cx="3" cy="19" r="0.3" fill="currentColor"/>
    <line x1="4.5" y1="18.5" x2="4.5" y2="19.5" stroke="currentColor" stroke-width="0.5"/>
    
    <!-- Offline indicator (no signal waves) -->
    <g opacity="0.6">
      <line x1="19" y1="18" x2="21" y2="20" stroke="currentColor" stroke-width="1.5" stroke-linecap="round"/>
      <line x1="21" y1="18" x2="19" y2="20" stroke="currentColor" stroke-width="1.5" stroke-linecap="round"/>
    </g>
  </g>
</svg>