<svg width="512" height="512" viewBox="0 0 512 512" xmlns="http://www.w3.org/2000/svg">
  <defs>
    <!-- Clean purple to teal -->
    <linearGradient id="minimalGradient" x1="0%" y1="0%" x2="100%" y2="100%">
      <stop offset="0%" style="stop-color:#A855F7;stop-opacity:1" />
      <stop offset="100%" style="stop-color:#14B8A6;stop-opacity:1" />
    </linearGradient>
  </defs>
  
  <!-- Background -->
  <rect width="512" height="512" rx="100" fill="#0D1117"/>
  
  <!-- Simple brain shape -->
  <g transform="translate(256, 256)">
    <!-- Unified brain shape -->
    <path d="M -80 -60 
             C -110 -60, -130 -40, -130 -10
             C -130 20, -110 40, -80 40
             L -20 40
             C -10 40, 0 30, 0 20
             L 0 -20
             C 0 -30, -10 -40, -20 -40
             L -20 -60
             
             L 20 -60
             L 20 -40
             C 10 -40, 0 -30, 0 -20
             L 0 20
             C 0 30, 10 40, 20 40
             L 80 40
             C 110 40, 130 20, 130 -10
             C 130 -40, 110 -60, 80 -60
             L 20 -60
             
             L -20 -60
             L -80 -60 Z" 
          fill="url(#minimalGradient)"/>
    
    <!-- Center line -->
    <line x1="0" y1="-60" x2="0" y2="40" stroke="#0D1117" stroke-width="3"/>
    
    <!-- Two simple dots for activity -->
    <circle cx="-40" cy="-10" r="6" fill="#ffffff" opacity="0.9"/>
    <circle cx="40" cy="-10" r="6" fill="#ffffff" opacity="0.9"/>
  </g>
</svg>