<svg width="512" height="512" viewBox="0 0 512 512" xmlns="http://www.w3.org/2000/svg">
  <defs>
    <!-- Solana gradient -->
    <linearGradient id="solanaGradient" x1="0%" y1="0%" x2="100%" y2="100%">
      <stop offset="0%" style="stop-color:#9945FF;stop-opacity:1" />
      <stop offset="50%" style="stop-color:#14F195;stop-opacity:1" />
      <stop offset="100%" style="stop-color:#00D4FF;stop-opacity:1" />
    </linearGradient>
    
    <!-- Background gradient -->
    <radialGradient id="bgGradient" cx="50%" cy="50%" r="50%">
      <stop offset="0%" style="stop-color:#667eea;stop-opacity:1" />
      <stop offset="100%" style="stop-color:#764ba2;stop-opacity:1" />
    </radialGradient>
    
    <!-- Inner glow -->
    <filter id="glow">
      <feGaussianBlur stdDeviation="3" result="coloredBlur"/>
      <feMerge> 
        <feMergeNode in="coloredBlur"/>
        <feMergeNode in="SourceGraphic"/>
      </feMerge>
    </filter>
  </defs>
  
  <!-- Background circle -->
  <circle cx="256" cy="256" r="240" fill="url(#bgGradient)" stroke="url(#solanaGradient)" stroke-width="8"/>
  
  <!-- Brain symbol -->
  <g transform="translate(256, 256)" filter="url(#glow)">
    <!-- Left brain hemisphere -->
    <path d="M -80 -60 
             C -120 -60, -140 -20, -140 20
             C -140 60, -120 100, -80 100
             C -40 100, -20 60, -20 20
             C -20 -20, -40 -60, -80 -60 Z" 
          fill="url(#solanaGradient)" opacity="0.9"/>
    
    <!-- Right brain hemisphere -->
    <path d="M 80 -60 
             C 120 -60, 140 -20, 140 20
             C 140 60, 120 100, 80 100
             C 40 100, 20 60, 20 20
             C 20 -20, 40 -60, 80 -60 Z" 
          fill="url(#solanaGradient)" opacity="0.9"/>
    
    <!-- Neural connections -->
    <g stroke="white" stroke-width="2" fill="none" opacity="0.7">
      <!-- Horizontal connections -->
      <line x1="-20" y1="0" x2="20" y2="0"/>
      <line x1="-20" y1="-30" x2="20" y2="-30"/>
      <line x1="-20" y1="30" x2="20" y2="30"/>
      
      <!-- Vertical connections in left hemisphere -->
      <line x1="-80" y1="-40" x2="-80" y2="-20"/>
      <line x1="-80" y1="0" x2="-80" y2="20"/>
      <line x1="-80" y1="40" x2="-80" y2="60"/>
      
      <!-- Vertical connections in right hemisphere -->
      <line x1="80" y1="-40" x2="80" y2="-20"/>
      <line x1="80" y1="0" x2="80" y2="20"/>
      <line x1="80" y1="40" x2="80" y2="60"/>
    </g>
    
    <!-- Neural nodes -->
    <g fill="white" opacity="0.8">
      <!-- Left hemisphere nodes -->
      <circle cx="-80" cy="-30" r="3"/>
      <circle cx="-80" cy="10" r="3"/>
      <circle cx="-80" cy="50" r="3"/>
      <circle cx="-50" cy="-10" r="2"/>
      <circle cx="-50" cy="30" r="2"/>
      
      <!-- Right hemisphere nodes -->
      <circle cx="80" cy="-30" r="3"/>
      <circle cx="80" cy="10" r="3"/>
      <circle cx="80" cy="50" r="3"/>
      <circle cx="50" cy="-10" r="2"/>
      <circle cx="50" cy="30" r="2"/>
      
      <!-- Central connecting nodes -->
      <circle cx="0" cy="-30" r="2"/>
      <circle cx="0" cy="0" r="2"/>
      <circle cx="0" cy="30" r="2"/>
    </g>
  </g>
  
  <!-- Subtle outer ring -->
  <circle cx="256" cy="256" r="248" fill="none" stroke="white" stroke-width="2" opacity="0.3"/>
</svg>