<svg width="512" height="512" viewBox="0 0 512 512" xmlns="http://www.w3.org/2000/svg">
  <defs>
    <!-- Solana gradient -->
    <linearGradient id="solanaSimple" x1="0%" y1="0%" x2="100%" y2="100%">
      <stop offset="0%" style="stop-color:#9945FF;stop-opacity:1" />
      <stop offset="100%" style="stop-color:#14F195;stop-opacity:1" />
    </linearGradient>
    
    <!-- Background -->
    <linearGradient id="bgSimple" x1="0%" y1="0%" x2="100%" y2="100%">
      <stop offset="0%" style="stop-color:#4facfe;stop-opacity:1" />
      <stop offset="100%" style="stop-color:#00f2fe;stop-opacity:1" />
    </linearGradient>
  </defs>
  
  <!-- Background -->
  <rect width="512" height="512" rx="100" fill="url(#bgSimple)"/>
  
  <!-- Simple brain icon -->
  <g transform="translate(256, 256)">
    <!-- Brain outline -->
    <path d="M -100 -80 
             C -140 -80, -160 -40, -160 0
             C -160 40, -140 80, -100 80
             L -20 80
             C -20 40, 0 40, 0 0
             C 0 -40, -20 -40, -20 -80
             L 20 -80
             C 20 -40, 40 -40, 40 0
             C 40 40, 20 80, 100 80
             C 140 80, 160 40, 160 0
             C 160 -40, 140 -80, 100 -80
             C 60 -80, 40 -40, 40 0
             C 40 40, 20 40, 20 80
             L -20 80
             C -20 40, -40 40, -40 0
             C -40 -40, -20 -40, -20 -80
             L -100 -80 Z" 
          fill="url(#solanaSimple)" 
          stroke="white" 
          stroke-width="4"/>
    
    <!-- Central divide -->
    <line x1="0" y1="-80" x2="0" y2="80" stroke="white" stroke-width="3" opacity="0.7"/>
    
    <!-- Neural patterns -->
    <g stroke="white" stroke-width="2" fill="white" opacity="0.6">
      <!-- Left side -->
      <circle cx="-70" cy="-30" r="4"/>
      <circle cx="-70" cy="20" r="4"/>
      <circle cx="-40" cy="-50" r="3"/>
      <circle cx="-40" cy="0" r="3"/>
      <circle cx="-40" cy="50" r="3"/>
      
      <!-- Right side -->
      <circle cx="70" cy="-30" r="4"/>
      <circle cx="70" cy="20" r="4"/>
      <circle cx="40" cy="-50" r="3"/>
      <circle cx="40" cy="0" r="3"/>
      <circle cx="40" cy="50" r="3"/>
      
      <!-- Connecting lines -->
      <line x1="-70" y1="-30" x2="-40" y2="-50"/>
      <line x1="-70" y1="20" x2="-40" y2="0"/>
      <line x1="70" y1="-30" x2="40" y2="-50"/>
      <line x1="70" y1="20" x2="40" y2="0"/>
    </g>
  </g>
</svg>